<?xml version="1.0" standalone="no"?><!DOCTYPE svg PUBLIC "-//W3C//DTD SVG 1.1//EN" "http://www.w3.org/Graphics/SVG/1.1/DTD/svg11.dtd"><svg t="1644678404405" class="icon" viewBox="0 0 1024 1024" version="1.1" xmlns="http://www.w3.org/2000/svg" p-id="8157" xmlns:xlink="http://www.w3.org/1999/xlink" width="128" height="128"><defs><style type="text/css"></style></defs><path d="M972.909979 389.723882v528.596758c0 58.188635-46.090998 105.67936-102.380004 105.67936h-716.859989c-56.289006 0-102.380004-47.590705-102.380004-105.67936V389.723882H972.909979zM435.514938 718.859598H240.053115c-26.494825 0-47.990627 21.495802-47.990627 47.990627s21.495802 47.990627 47.990627 47.990626h195.361843c26.494825 0 47.990627-21.495802 47.990627-47.990626s-21.395821-47.990627-47.890647-47.990627z m348.631908-206.859598H240.053115c-26.494825 0-47.990627 21.495802-47.990627 47.990627 0 24.295255 18.096466 44.39133 41.491896 47.590705l6.498731 0.399922h543.993751c26.494825 0 47.990627-21.495802 47.990627-47.990627 0.09998-26.494825-21.395821-47.990627-47.890647-47.990627zM768.04999 0c28.294474 0 51.190002 22.895528 51.190002 51.190002v51.190002h51.190002c56.289006 0 102.380004 46.090998 102.380004 102.380004v102.380004H51.289982V204.760008c0-56.289006 46.090998-102.380004 102.380004-102.380004h51.190002V51.190002c0-28.294474 22.995509-51.190002 51.190002-51.190002s51.190002 22.895528 51.190002 51.190002v51.190002h409.619996V51.190002c0-28.294474 22.995509-51.190002 51.190002-51.190002z" p-id="8158" fill="#36556a"></path></svg>