<?xml version="1.0" standalone="no"?><!DOCTYPE svg PUBLIC "-//W3C//DTD SVG 1.1//EN" "http://www.w3.org/Graphics/SVG/1.1/DTD/svg11.dtd"><svg t="1644496793084" class="icon" viewBox="100 100 924 924" version="1.1" xmlns="http://www.w3.org/2000/svg" p-id="2076" xmlns:xlink="http://www.w3.org/1999/xlink" width="200" height="200"><defs><style type="text/css"></style></defs><path d="M512 451.33l242.679-242.679c16.754-16.753 43.916-16.753 60.67 0 16.753 16.754 16.753 43.916 0 60.67L572.669 512l242.68 242.679c16.753 16.754 16.753 43.916 0 60.67-16.754 16.753-43.916 16.753-60.67 0L512 572.669 269.321 815.35c-16.754 16.753-43.916 16.753-60.67 0-16.753-16.754-16.753-43.916 0-60.67L451.331 512 208.65 269.321c-16.753-16.754-16.753-43.916 0-60.67 16.754-16.753 43.916-16.753 60.67 0L512 451.331z" p-id="2077" fill="#ffffff"></path></svg>