<?xml version="1.0" standalone="no"?><!DOCTYPE svg PUBLIC "-//W3C//DTD SVG 1.1//EN" "http://www.w3.org/Graphics/SVG/1.1/DTD/svg11.dtd"><svg t="1645325143618" class="icon" viewBox="0 0 1024 1024" version="1.1" xmlns="http://www.w3.org/2000/svg" p-id="2922" xmlns:xlink="http://www.w3.org/1999/xlink" width="128" height="128"><defs><style type="text/css"></style></defs><path d="M512 0C229.226 0 0 229.227 0 511.999 0 794.773 229.226 1024 512 1024s512-229.227 512-512.001C1024.143 229.227 794.916 0 512 0M202.881 853.049C250.987 728.771 370.684 640 512 640c141.318 0 261.012 88.627 309.262 212.902-81.897 74.309-190.139 119.84-309.262 119.84-119.123 0.143-227.365-45.531-309.118-119.695v0.002m155.49-417.792c0-84.903 68.724-153.629 153.628-153.629 84.905 0 153.629 68.725 153.629 153.629 0 84.903-68.725 153.629-153.629 153.629-84.904 0.001-153.628-68.868-153.628-153.629m501.546 378.417c-45.242-98.793-130.146-175.248-235.238-207.605 55.41-36.51 92.207-99.366 92.207-170.811 0-113.109-91.777-204.886-204.887-204.886s-204.886 91.776-204.886 204.886c0 71.445 36.654 134.301 92.206 170.952-105.093 32.359-189.996 108.814-235.238 207.607-70.3-80.895-112.966-186.129-112.966-301.675C51.115 257.576 257.432 51.258 512 51.258c254.57 0 460.888 206.317 460.888 460.884 0 115.401-42.811 220.636-112.967 301.532h-0.003m0 0z" p-id="2923"></path></svg>